<svg width="1920" height="1080" viewBox="0 0 1920 1080" xmlns="http://www.w3.org/2000/svg"><rect width="1920" height="1080" fill="#eef2fb"/><path d="M 0,1080 C 0,1080 0,270 0,270 C 146.20890057892095,217.89210658489517 292.4178011578419,165.78421316979035 362,189 C 431.5821988421581,212.21578683020965 424.53769594755346,310.7552539057337 416,302 C 407.46230405244654,293.2447460942663 397.4314150519443,177.19477120727484 472,172 C 546.5685849480557,166.80522879272516 705.7366438446695,272.46566126516694 834,317 C 962.2633561553305,361.53433873483306 1059.622009569378,344.9425837320574 1132,335 C 1204.377990430622,325.0574162679426 1251.7753178778185,321.76400380660334 1263,305 C 1274.2246821221815,288.23599619339666 1249.2767189193478,258.001401041529 1298,262 C 1346.7232810806522,265.998598958471 1469.1178064447909,304.2303920272807 1594,323 C 1718.8821935552091,341.7696079727193 1846.2520553014883,341.0770308493484 1901,329 C 1955.7479446985117,316.9229691506516 1937.8739723492558,293.4614845753258 1920,270 C 1920,270 1920,1080 1920,1080 Z" fill="#2e8b57" opacity="0.15"/><path d="M 0,1080 C 0,1080 0,540 0,540 C 91.55403262047636,563.0035819080599 183.10806524095273,586.0071638161199 288,591 C 392.8919347590473,595.9928361838801 511.1217716566655,582.9749266435804 518,546 C 524.8782283433345,509.0250733564196 420.4048481323852,448.09312960955884 449,466 C 477.5951518676148,483.90687039044116 639.2588358137937,580.6525549181845 797,607 C 954.7411641862063,633.3474450818155 1108.5598086124403,589.2966507177034 1193,577 C 1277.4401913875597,564.7033492822966 1292.5019297364456,584.1608422110021 1357,551 C 1421.4980702635544,517.8391577889979 1535.4324724417777,432.0599804382881 1537,445 C 1538.5675275582223,457.9400195617119 1427.7681804964445,569.5992360358456 1507,576 C 1586.2318195035555,582.4007639641544 1855.4948055724444,483.54307541832986 1956,460 C 2056.5051944275556,436.45692458167014 1988.2525972137778,488.22846229083507 1920,540 C 1920,540 1920,1080 1920,1080 Z" fill="#2e8b57" opacity="0.3"/><path d="M 0,1080 C 0,1080 0,810 0,810 C 7.3607021068492315,823.8408099606122 14.721404213698463,837.6816199212244 122,815 C 229.27859578630154,792.3183800787756 436.47508525205535,733.1143302757143 556,738 C 675.5249147479446,742.8856697242857 707.3782547780803,811.861058975918 797,861 C 886.6217452219197,910.138941024082 1034.0118956356234,939.4414338206137 1040,904 C 1045.9881043643766,868.5585661793863 910.5741626794259,768.3732057416267 898,746 C 885.4258373205741,723.6267942583733 995.6914536466732,779.0657432128789 1114,815 C 1232.3085463533268,850.9342567871211 1358.6600227338813,867.3638214068573 1452,872 C 1545.3399772661187,876.6361785931427 1605.668455417801,869.4789711596923 1659,852 C 1712.331544582199,834.5210288403077 1758.666155594914,806.7202939543736 1801,798 C 1843.333844405086,789.2797060456264 1881.666922202543,799.6398530228132 1920,810 C 1920,810 1920,1080 1920,1080 Z" fill="#2e8b57" opacity="0.44999999999999996"/></svg>