<svg width="1920" height="1080" viewBox="0 0 1920 1080" xmlns="http://www.w3.org/2000/svg"><rect width="1920" height="1080" fill="#2e8b57"/><path d="M 0,1080 C 0,1080 0,180 0,180 C 88.60512820512821,140.7051282051282 177.21025641025642,101.41025641025641 279,121 C 380.7897435897436,140.5897435897436 495.7641025641026,219.06410256410257 599,231 C 702.2358974358974,242.93589743589743 793.7333333333333,188.33333333333334 922,165 C 1050.2666666666667,141.66666666666666 1215.302564102564,149.6025641025641 1334,142 C 1452.697435897436,134.3974358974359 1525.0564102564101,111.25641025641025 1615,115 C 1704.9435897435899,118.74358974358975 1812.4717948717948,149.37179487179486 1920,180 C 1920,180 1920,1080 1920,1080 Z" fill="#eef2fb" opacity="0.09999999999999999"/><path d="M 0,1080 C 0,1080 0,360 0,360 C 124.32051282051285,359.34358974358975 248.6410256410257,358.6871794871795 340,374 C 431.3589743589743,389.3128205128205 489.7564102564103,420.5948717948718 591,398 C 692.2435897435897,375.4051282051282 836.3333333333333,298.93333333333334 964,296 C 1091.6666666666667,293.06666666666666 1202.9102564102564,363.6717948717949 1307,370 C 1411.0897435897436,376.3282051282051 1508.025641025641,318.37948717948717 1609,306 C 1709.974358974359,293.62051282051283 1814.9871794871794,326.81025641025644 1920,360 C 1920,360 1920,1080 1920,1080 Z" fill="#eef2fb" opacity="0.19999999999999998"/><path d="M 0,1080 C 0,1080 0,540 0,540 C 127.45384615384617,505.3538461538461 254.90769230769234,470.7076923076923 346,476 C 437.09230769230766,481.2923076923077 491.8230769230769,526.5230769230769 607,558 C 722.1769230769231,589.4769230769231 897.8,607.2 1015,588 C 1132.2,568.8 1190.9769230769232,512.676923076923 1284,503 C 1377.0230769230768,493.32307692307694 1504.2923076923078,530.0923076923077 1616,544 C 1727.7076923076922,557.9076923076923 1823.853846153846,548.9538461538461 1920,540 C 1920,540 1920,1080 1920,1080 Z" fill="#eef2fb" opacity="0.3"/><path d="M 0,1080 C 0,1080 0,720 0,720 C 95.35641025641027,719.5358974358974 190.71282051282054,719.0717948717949 290,717 C 389.28717948717946,714.9282051282051 492.50512820512824,711.2487179487179 603,702 C 713.4948717948718,692.7512820512821 831.2666666666667,677.9333333333335 959,699 C 1086.7333333333333,720.0666666666665 1224.4282051282053,777.0179487179487 1337,775 C 1449.5717948717947,772.9820512820513 1537.020512820513,711.9948717948719 1630,693 C 1722.979487179487,674.0051282051281 1821.4897435897435,697.0025641025641 1920,720 C 1920,720 1920,1080 1920,1080 Z" fill="#eef2fb" opacity="0.39999999999999997"/><path d="M 0,1080 C 0,1080 0,900 0,900 C 94.63333333333335,878.8923076923077 189.2666666666667,857.7846153846154 282,849 C 374.7333333333333,840.2153846153846 465.5666666666667,843.7538461538462 584,837 C 702.4333333333333,830.2461538461538 848.4666666666667,813.1999999999999 952,842 C 1055.5333333333333,870.8000000000001 1116.5666666666666,945.4461538461541 1236,953 C 1355.4333333333334,960.5538461538459 1533.2666666666667,901.0153846153846 1657,881 C 1780.7333333333333,860.9846153846154 1850.3666666666668,880.4923076923077 1920,900 C 1920,900 1920,1080 1920,1080 Z" fill="#eef2fb" opacity="0.49999999999999994"/></svg>